<?xml version="1.0" encoding="UTF-8"?>
<svg id="Layer_2" data-name="Layer 2" xmlns="http://www.w3.org/2000/svg" viewBox="0 0 210.99 148.55">
  <defs>
    <style>
      .cls-1 {
        fill: #f4cee8;
      }
    </style>
  </defs>
  <g id="Layer_1-2" data-name="Layer 1">
    <path class="cls-1" d="M199.81,9.47C192.36,2.92,181.42-.23,166.99.01c-11.15.12-20.36,2.79-27.64,8-7.27,5.21-12.61,12.61-16,22.18,0-5.82-.7-10.67-2.09-14.55-1.39-3.88-3.55-6.94-6.45-9.18-2.91-2.24-6.6-3.85-11.09-4.82-4.48-.97-9.88-1.46-16.18-1.46v2c3.39,0,5.94.97,7.64,2.91,1.7,1.94,2.91,4.48,3.64,7.64.73,3.15,1.12,6.76,1.18,10.82.06,4.06.09,8.27.09,12.64v3.92c-2.27-2.42-4.84-4.53-7.72-6.31-5.09-3.15-10.94-5.42-17.55-6.82-6.61-1.39-13.67-2.09-21.18-2.09-6.3,0-11.67,1.09-16.09,3.27-4.43,2.18-7.91,5-10.45,8.46-2.54,3.45-4.09,7.21-4.64,11.27-.55,4.06-.09,8,1.36,11.82,1.46,3.82,3.97,7.18,7.55,10.09,3.57,2.91,8.15,4.91,13.73,6-6.06,1.09-11.82,2.52-17.27,4.27-5.45,1.76-10.24,4.09-14.36,7-4.12,2.91-7.4,6.46-9.82,10.64-2.43,4.18-3.64,9.12-3.64,14.82,0,11.15,3.73,20,11.18,26.55,7.46,6.55,18.39,9.7,32.82,9.45,11.15-.12,20.36-2.79,27.64-8,7.27-5.21,12.61-12.61,16-22.18,0,5.82.7,10.67,2.09,14.55,1.39,3.88,3.55,6.94,6.46,9.18,2.91,2.24,6.6,3.85,11.09,4.82,4.48.97,9.88,1.46,16.18,1.46v-2c-3.39,0-5.94-.97-7.64-2.91-1.7-1.94-2.91-4.48-3.64-7.64-.73-3.15-1.12-6.76-1.18-10.82-.06-4.06-.09-8.27-.09-12.64v-3.92c2.28,2.42,4.84,4.53,7.72,6.31,5.09,3.15,10.94,5.42,17.55,6.82,6.61,1.39,13.67,2.09,21.18,2.09,6.3,0,11.67-1.09,16.09-3.27,4.43-2.18,7.91-5,10.45-8.46,2.55-3.45,4.09-7.21,4.64-11.27.55-4.06.09-8-1.36-11.82-1.46-3.82-3.97-7.18-7.55-10.09-3.57-2.91-8.15-4.91-13.73-6,6.06-1.09,11.82-2.52,17.27-4.27,5.45-1.76,10.24-4.09,14.36-7,4.12-2.91,7.4-6.45,9.82-10.64,2.43-4.18,3.64-9.12,3.64-14.82,0-11.15-3.73-20-11.18-26.55M87.64,97.99c0,8.49-1,15.64-3.01,21.45-2.01,5.82-4.71,10.55-8.11,14.18-3.4,3.64-7.45,6.27-12.12,7.91-4.68,1.63-9.63,2.45-14.86,2.45-9.24,0-15.93-2.64-20.06-7.91-4.14-5.27-6.2-12.51-6.2-21.73,0-6.42,1.06-11.88,3.19-16.36,2.13-4.48,4.95-8.18,8.48-11.09,3.52-2.91,7.54-5.15,12.04-6.73,4.5-1.58,9.15-2.73,13.95-3.45,4.8-.73,9.51-1.12,14.13-1.18,4.62-.06,8.81-.09,12.58-.09v22.55ZM82.17,73.26c-4.62,0-9.36.09-14.22.27-4.86.18-9.85.58-14.95,1.18-5.59,0-10.85-1.09-15.77-3.27-4.92-2.18-8.66-5.88-11.21-11.09-1.21-2.91-1.89-5.7-2-8.36,0-4.12.82-7.76,2.46-10.91,1.64-3.15,3.8-5.79,6.47-7.91,2.67-2.12,5.77-3.7,9.3-4.73,3.53-1.03,7.18-1.55,10.94-1.55,6.56.12,12,1.36,16.32,3.73,4.31,2.36,7.81,5.58,10.48,9.64,2.68,4.06,4.59,8.91,5.75,14.55,1.15,5.64,1.79,11.79,1.91,18.46h-5.47ZM106.3,7.25c1.78,0,3.22,1.44,3.22,3.22s-1.44,3.22-3.22,3.22-3.22-1.44-3.22-3.22,1.44-3.22,3.22-3.22M98.25,134.5c-.89,0-1.61-.72-1.61-1.61s.72-1.61,1.61-1.61,1.61.72,1.61,1.61-.72,1.61-1.61,1.61M104.69,140.94c-1.78,0-3.22-1.44-3.22-3.22s1.44-3.22,3.22-3.22,3.22,1.44,3.22,3.22-1.44,3.22-3.22,3.22M112.74,16.92c-.89,0-1.61-.72-1.61-1.61s.72-1.61,1.61-1.61,1.61.72,1.61,1.61-.72,1.61-1.61,1.61M173.78,77.11c4.92,2.18,8.66,5.88,11.21,11.09,1.22,2.91,1.89,5.7,2,8.36,0,4.12-.82,7.75-2.46,10.91-1.64,3.15-3.8,5.79-6.47,7.91-2.67,2.12-5.77,3.7-9.3,4.73-3.53,1.03-7.18,1.55-10.94,1.55-6.56-.12-12-1.36-16.32-3.73-4.31-2.36-7.81-5.58-10.49-9.64-2.67-4.06-4.59-8.91-5.74-14.55-1.15-5.64-1.79-11.79-1.91-18.46h5.47c4.62,0,9.36-.09,14.22-.27,4.86-.18,9.85-.58,14.95-1.18,5.59,0,10.85,1.09,15.77,3.27M184.53,50.56c-2.13,4.48-4.95,8.18-8.48,11.09-3.53,2.91-7.54,5.15-12.04,6.73-4.5,1.57-9.15,2.73-13.95,3.45-4.8.73-9.51,1.12-14.13,1.18-4.62.06-8.81.09-12.58.09v-22.55c0-8.49,1-15.64,3.01-21.46,2.01-5.82,4.71-10.55,8.11-14.18,3.4-3.64,7.45-6.27,12.12-7.91,4.68-1.64,9.64-2.45,14.86-2.45,9.24,0,15.93,2.64,20.06,7.91s6.2,12.51,6.2,21.73c0,6.42-1.06,11.88-3.19,16.36"/>
  </g>
</svg>