<?xml version="1.0" encoding="UTF-8"?>
<svg id="Layer_2" data-name="Layer 2" xmlns="http://www.w3.org/2000/svg" xmlns:xlink="http://www.w3.org/1999/xlink" viewBox="0 0 1916.71 1034.12">
  <defs>
    <style>
      .cls-1 {
        fill: url(#linear-gradient-8);
      }

      .cls-2 {
        fill: url(#linear-gradient-7);
      }

      .cls-3 {
        fill: url(#linear-gradient-5);
      }

      .cls-4 {
        fill: url(#linear-gradient-6);
      }

      .cls-5 {
        fill: url(#linear-gradient-9);
      }

      .cls-6 {
        fill: url(#linear-gradient-4);
      }

      .cls-7 {
        fill: url(#linear-gradient-3);
      }

      .cls-8 {
        fill: url(#linear-gradient-2);
      }

      .cls-9 {
        fill: url(#linear-gradient);
      }

      .cls-10 {
        fill: url(#linear-gradient-10);
      }

      .cls-11 {
        fill: url(#linear-gradient-11);
      }

      .cls-12 {
        fill: url(#linear-gradient-12);
      }

      .cls-13 {
        fill: url(#linear-gradient-13);
      }

      .cls-14 {
        fill: url(#linear-gradient-14);
      }

      .cls-15 {
        fill: url(#linear-gradient-15);
      }

      .cls-16 {
        fill: url(#linear-gradient-16);
      }
    </style>
    <linearGradient id="linear-gradient" x1="0" y1="610.69" x2="343.46" y2="610.69" gradientUnits="userSpaceOnUse">
      <stop offset="0" stop-color="#f7b7cc"/>
      <stop offset="1" stop-color="#809bc4"/>
    </linearGradient>
    <linearGradient id="linear-gradient-2" x1="332.73" y1="664.81" x2="418.05" y2="664.81" xlink:href="#linear-gradient"/>
    <linearGradient id="linear-gradient-3" x1="290.31" y1="749.03" x2="582.11" y2="749.03" xlink:href="#linear-gradient"/>
    <linearGradient id="linear-gradient-4" x1="11.42" y1="826.94" x2="290.72" y2="826.94" xlink:href="#linear-gradient"/>
    <linearGradient id="linear-gradient-5" x1="1300.7" y1="291.15" x2="1885.12" y2="291.15" xlink:href="#linear-gradient"/>
    <linearGradient id="linear-gradient-6" x1="1306.29" y1="141.15" x2="1514.02" y2="141.15" xlink:href="#linear-gradient"/>
    <linearGradient id="linear-gradient-7" x1="1503.63" y1="35.4" x2="1812.55" y2="35.4" xlink:href="#linear-gradient"/>
    <linearGradient id="linear-gradient-8" x1="1795.74" y1="96.15" x2="1915.37" y2="96.15" xlink:href="#linear-gradient"/>
    <linearGradient id="linear-gradient-9" x1="1573.25" y1="156.06" x2="1699.3" y2="156.06" xlink:href="#linear-gradient"/>
    <linearGradient id="linear-gradient-10" x1="1713.8" y1="173.49" x2="1837.03" y2="173.49" xlink:href="#linear-gradient"/>
    <linearGradient id="linear-gradient-11" x1="1515.24" y1="87.04" x2="1534.32" y2="87.04" xlink:href="#linear-gradient"/>
    <linearGradient id="linear-gradient-12" x1="1692" y1="280.67" x2="1737" y2="280.67" xlink:href="#linear-gradient"/>
    <linearGradient id="linear-gradient-13" x1="1710.18" y1="918.6" x2="1902.06" y2="918.6" xlink:href="#linear-gradient"/>
    <linearGradient id="linear-gradient-14" x1="1634.37" y1="853.5" x2="1788.86" y2="853.5" xlink:href="#linear-gradient"/>
    <linearGradient id="linear-gradient-15" x1="1759" y1="834.9" x2="1916.71" y2="834.9" xlink:href="#linear-gradient"/>
    <linearGradient id="linear-gradient-16" x1="1607.89" y1="932.32" x2="1902.12" y2="932.32" xlink:href="#linear-gradient"/>
  </defs>
  <g id="Layer_1-2" data-name="Layer 1">
    <g>
      <g>
        <path class="cls-9" d="M261.59,596.09c-13.3-7.68-25.48,7.16-30.99,17.98-8.79,17.26-11.97,40.65.49,56.79,8.1,10.41,21.92,14.77,34.69,15.65,27.65,1.4,49.51-21.08,61.19-44.14,3.11-6.05,5.72-12.37,7.77-18.87,12.78-39.64,5.13-87-34.59-107.65-4.48-2.42-9.35-4.32-14.2-5.85-2.78-.82-7.07-1.9-9.94-2.67-1.8-.31-5.87-1.12-7.58-1.42-29.36-4.95-60.46,2-85.16,18.57,0,0-4.21,2.83-4.21,2.83-1.36,1.03-4.74,3.64-6.05,4.63-1.32,1.07-4.42,3.85-5.75,4.99-1.84,1.61-3.66,3.63-5.45,5.32-4.07,4.12-7.93,8.94-11.47,13.55-23.07,31.46-31.33,72.9-20.31,110.53,0,0,5.61,19.51,5.61,19.51-4.91-6.41-13.65-20.23-19.68-25.36-8.76-7.83-21.22-10.9-32.55-7.41-15.12,4.2-27.18,20.08-20.35,35.69,0,0,1.51,3.57,1.51,3.57,0,0-3.79-.54-3.79-.54-21.73-2.66-44.75,15.88-60.28,29.45,0,0-.49-.5-.49-.5,4.11-4.21,8.38-8.28,12.89-12.09,13.6-11.23,29.83-22.7,48.46-21.16,0,0-2.28,3.03-2.28,3.03-4.05-8.31-3.4-18.69,1.36-26.61,4.66-7.96,12.5-13.68,21.18-16.55,18.46-6.2,37.2,2.43,47.92,17.95,0,0-6.27,3.03-6.27,3.03-4.1-13.67-5.95-28.03-5.43-42.32.66-17.86,5.34-35.5,13.06-51.56,1.54-3.15,3.29-6.39,5.04-9.43,1.65-2.65,3.94-6.51,5.78-8.98,4.16-6.13,9.32-12.16,14.38-17.52,2.23-2.07,4.48-4.45,6.76-6.44,1.43-1.2,4.7-4.03,6.12-5.16,1.36-1.04,5.01-3.72,6.42-4.78,5.17-3.46,10.49-6.72,16.07-9.47,13.47-6.65,28.33-10.96,43.32-12.11,0,0,5.29-.4,5.29-.4,0,0,5.3-.02,5.3-.02,3.15-.14,7.41.26,10.58.48,1.64.02,3.64.38,5.25.59,1.64.32,6.22.77,7.82,1.25,1.82.37,5.91,1.32,7.73,1.7,8.41,2.34,16.92,5.16,24.57,9.47,39.68,21.16,49.01,70.59,37.59,111.11-8.71,33.37-35.36,70.01-73.5,67.84-23.17-1.53-43.74-14.27-46.69-38.78-2.59-20.01,6.41-45.33,23.04-57.26,5.95-4.24,14.07-5.67,20.2-1.04,0,0-.39.58-.39.58h0Z"/>
        <path class="cls-8" d="M332.73,635.45c16.54-13.84,43.07-23.49,63.62-13.16,11.6,5.85,17.79,18.39,20.24,30.64,3.83,19.02.9,44.31-17.19,55.29-9.09,4.88-22.39,4.91-30.36-2.24-12.58-11.85-4.37-31.17,5.75-41.77,0,0,.31.25.31.25-2.79,4.09-5.28,8.37-6.99,12.91-5.77,14.3-1.3,29.55,15.99,29.95,4.54.1,9.23-.59,13.3-2.75,12.6-7.07,17.23-23.13,18.5-36.75,2.09-36.96-21.29-52.81-56.08-43.82-9.48,2.51-18.45,6.65-26.85,11.78,0,0-.24-.32-.24-.32h0Z"/>
        <path class="cls-7" d="M416.87,674.07c17.66-12.27,44.61-9.35,49.58,14.48,2.86,12.17-2.06,24.13-2.49,36.24-2.43,38.68,31.18,51.05,63.07,57.52,12-.26,28.29-2.72,40.54-8.19,4.24-1.86,8.22-4.17,11.92-6.82,0,0,2.34,3.71,2.34,3.71-23.07,12.28-44.44,27.14-67.01,40.41-22.74,13.65-49.63,23.68-76.46,18.05-25.99-5.22-49.55-16.9-74.87-23.64-18.35-4.96-38.59-8.12-56.63-.48-5.9,2.52-11.34,6.15-16.13,10.55,0,0-.42-.42-.42-.42,9.26-9.9,21.41-15.82,34.85-17.4,26.54-2.89,52.3,6.73,77.11,14.78,15.25,4.95,30.53,10.52,46.55,11.79,22.58,1.58,43.8-7.04,63.28-18.03,22.65-12.8,44.46-27.52,67.68-39.5,0,0,2.34,3.71,2.34,3.71-8.03,5.72-17.25,9.36-26.73,11.68-9.52,2.25-19.11,3.44-28.93,3.43-8.01-1.73-15.97-3.79-23.72-6.6-15.32-5.47-31-14.66-37.48-30.35-4.87-11.63-4.25-24.42-1.91-36.46,1.74-7.76,3.11-15.77,1.52-23.65-3.25-17.78-20.64-24.3-36.8-19.37-3.83,1.16-7.49,2.86-10.85,5.05l-.33-.5h0Z"/>
        <path class="cls-6" d="M271.24,767.34c14.62,16.11,25.87,48.89,15.39,69.41-6.69,12.79-20.02,16.12-33.43,16.47-12.44.45-24.62-3.16-36.32-6.36-14.61-4.22-28.54-5.49-42.37,1.96-12.31,6.72-26.36,16.29-38.09,24.21-10.08,6.84-21.11,12.41-32.83,15.93-32.2,8.95-87.86-3.64-92.05-42.91-1.48-19.66,10.61-36.91,23.29-50.58,12.87-13.05,27.53-26.41,45.46-31.89,32.5-9.17,41.88,28.67,30.98,52.3-2.59,5.53-6.91,11.07-13.18,12.39,0,0-.17-.68-.17-.68,11.31-4.14,14.06-19.17,14.03-29.84-.28-10.68-3.58-23.68-14.18-28.32-15.21-5.82-33.76,9.17-44.82,18.73-12.8,11.65-25.45,24.82-31.81,41.11-14.88,38.57,32.87,58.45,64.12,58.55,24.92.82,45.4-12.85,64.92-26.78,7.53-5.16,14.93-10.3,22.71-15.14,8.08-4.83,17.51-7.56,26.96-7.31,12.37.22,24.1,4.36,35.93,6.67,10.56,2.1,21.67,2.69,32.1-.23,25.45-7.96,19.18-42.38,11.38-61.54-2.26-5.52-4.99-10.89-8.55-15.7,0,0,.53-.45.53-.45h0Z"/>
      </g>
      <g>
        <path class="cls-3" d="M1300.7,219.53c103.8-1.04,289.14-2.41,392.76-3.29,3.62-.03,8.11-.21,11.76-.08,4.08.18,8.06.68,12,1.39,11.96,2.43,24.25,5.7,33.83,14.1,9.15,8.48,6.59,18.92-2.47,26.12-4.99,4.08-10.24,6.84-15.89,9.45-3.27,1.48-6.81,3.11-9.82,4.96-1.98,1.25-3.93,2.48-5.18,4.14-.27.37-.25.54-.23.34,0-.09-.01-.24-.04-.31-.02-.08-.03-.07.02,0,1.14,1.31,3.1,2.17,5.07,2.98,8.6,3.25,17.77,4.73,27.06,6.26,15.04,2.41,30.33,4.04,45.62,5.76,13.51,1.74,33.01,3.09,46.16,6.39,15.23,3.8,31.46,10.92,39.68,25.13,8.62,14.93,2.72,32.42-9.49,43.31,0,0-.64-.64-.64-.64,10.27-10.79,15.35-27.5,6.61-40.56-8.2-12.48-23.38-18.09-37.55-21.07-12.78-2.58-32.33-3.39-45.54-4.66-15.36-1.3-30.75-2.66-46.19-4.76-9.66-1.48-19.73-2.94-29.17-6.49-14.78-5.53-14.07-16.54-1.01-23.85,5.05-3.06,10.61-5.05,15.82-7.73,5.12-2.73,12.56-6.91,13.95-12.25.49-2.41-.96-4.45-2.79-6.29-10.47-9.47-31.65-14.33-45.73-14.07-75.96-.35-231.17-1.6-306.19-2.4,0,0-92.42-1.01-92.42-1.01,0,0,0-.9,0-.9h0Z"/>
        <path class="cls-4" d="M1306.29,209.12c7.54-8.67,19.56-13.87,31.09-11.49,3.82.7,6.04,1.3,8.64-2.07,9.69-11.53,23.55-22.49,39.53-20.59,4.47.52,8.82,2.3,12.28,5.15,0,0-1.55.93-1.55.93-.7-4.82-.05-9.84,1.97-14.23,6.22-13.18,20.87-20.51,34.81-22.39,4.78-.57,9.72-.47,14.52.81,3.36.88,6.52,2.66,9.91,3.34,1.37.25,2.74.52,3.82-.05.8-.65.61-1.69.5-2.98-1.32-6.59-4.95-12.73-7.94-18.84-4.49-8.89-5.53-19.32-2.94-28.92,3.69-13.95,15.51-22.58,29.47-24.39,17.57-2.9,30.67,7.44,33.62,24.72,0,0-.39.08-.39.08-2.06-8.93-7.25-17.78-16.07-21.21-6.36-2.6-13.57-2.65-20.09-.55-10.95,2.96-20.09,11.17-22.64,22.38-2.13,8.58-1.09,18.07,2.81,26,3.02,6.55,6.65,12.9,7.89,20.23.55,3.3-.75,7.07-4.75,7.34-5.21.3-9.36-2.66-14.07-4.2-10.91-3.3-23.27-1.07-33.18,4.4-11.41,6.41-18.51,17.26-14.86,30.52,0,0-2.02-1.47-2.02-1.47-6.73-4.98-15.73-4.92-23.35-2.17-9.91,3.43-17.88,10.61-24.86,18.31-3.36,4.01-6.91,3.96-11.68,2.67-10.79-2.7-22.08,1.66-30.18,8.95,0,0-.28-.28-.28-.28h0Z"/>
        <path class="cls-2" d="M1528.49,70.8c-16.78-11.7-30.24-27.56-22.72-49.19,1.47-4.26,3.62-8.21,6.09-11.94,1.83-2.69,4.51-4.76,7.27-6.18,11.53-5.57,25.81-4.28,36.55,2.58,8.94,5.6,13.61,16.41,12.97,26.71-.33,8.71-3.5,16.62-6.93,24.42-3.58,9.87,8.6,6.01,10.98.39,2.96-6.36,5.13-13.45,9.23-19.3,5.67-8.75,15.1-12.82,25.38-11.42,9.51,1.05,18.21,5.66,27.42,7.71,4.54,1.16,8.91,1.54,13.62,1.64,7.24.23,14.63,1,21.71,2.61,11.53,3.68,20.6,12.45,31.32,17.27,4.24,2.06,7.38,2.22,12.2,1.6,28.27-2.64,56.62-6.6,85.09-5.83,3.59.21,7.23.36,10.72,1.32,1.2.41,2.58.76,3.16,2.07,0,0-.56.22-.56.22-.2-.4-.69-.68-1.2-.86-3.91-1.11-8.09-.72-12.12-.6-4.69.28-9.39.71-14.08,1.21-13.48,1.46-28.63,3.52-42.17,5.33-10.63,1.37-21.17,2.96-31.88,3.83-1.22.1-2.89.09-4.17-.09-7.71-1.22-14.1-5.91-20.23-9.92-3.94-2.65-7.78-5.35-11.72-7.55-2.46-1.36-4.79-2.49-7.39-3.06-1.7-.31-3.47-.7-5.15-.99-9.3-1.97-19.1-1.36-28.2-4.45-9.12-2.65-17.3-7.74-26.67-9.27-9.55-1.66-18.33,2-23.48,10.33-2.53,3.9-4.23,8.27-5.67,12.7-1.21,3.39-1.95,7.37-4.45,10.26-3.53,4.18-11.32,7.37-15.45,2.28-3.86-6.13,1.39-12.84,2.95-18.81,4.19-12.57,3.82-27.38-8.21-35.28-9.76-6.66-27.68-7.9-36.24,1.02-5.34,7.02-9.31,15.7-8.96,24.65.27,9.17,5.15,17.56,11.26,24.29,3.1,3.5,6.63,6.63,10.11,9.88,0,0-.39.45-.39.45h0Z"/>
        <path class="cls-1" d="M1915.27,47.46c-5.98-.87-12.08.22-18.02,1.09-5.97,1-11.91,2.27-17.8,3.69-7.87,2-59.94,15.05-54.9,25.29,1.46,2.18,4.01,2.91,6.2,4.35,2.66,1.62,5.07,3.65,7.07,6.06,4.26,4.84,5.92,12.98-.19,17.16-2.57,1.94-5.93,2.36-8.86,3.14-5.75,1.64-11.31,4.07-16.49,6.99-10.57,5.94-20.23,15.6-3.99,22.18,5.42,1.95,11.38,2.93,17.33,3.63,17.97,2,36.36,1.81,54.5,1.31,6.08-.23,12.17-.43,18.24-.97,0,0,.06.4.06.4-6,1.2-12.08,1.94-18.16,2.59-21.73,1.98-52.87,4.23-73.47-3.08-6.36-2.27-13.35-8.73-10.3-16.06,2.81-6.36,8.61-9.73,14.27-12.83,5.56-2.83,11.42-4.92,17.5-6.29,5.78-.89,12.29-2.32,12.04-9.51-.46-5.94-5.3-10.7-10.21-13.63-2.57-1.58-6.38-2.59-7.44-5.85-1.62-6,8.22-11.08,12.49-13.51,13.66-7.16,28.65-11.25,43.66-14.42,9.03-1.8,18.18-3.2,27.41-3.24,3.07.04,6.2.18,9.18,1.09l-.1.39h0Z"/>
        <path class="cls-5" d="M1628.33,126.92c8.54,4.65,15.11,17.78,17.36,27,1.82,7.79,1.05,14.05-6.01,18.98-8.63,6.03-19.62,5.67-29.48,4.27-5.78-.77-10.63-4.54-14.89-8.17-11.01-10.1-20.67-23.88-21.98-39.1-.82-9.16,3.8-17.22,10.2-23.41,16.02-15.86,41.74-18.33,61.99-9.62,4.07,1.74,8.03,4.01,11.61,6.61,18.23,13.5,38.82,33.64,41.87,57.17,3.23,26.57-22.28,43.18-43.89,51.65-8.02,3.15-16.21,5.79-24.52,7.91,0,0-.14-.48-.14-.48,8.1-2.77,16.11-5.78,23.82-9.37,11.34-5.37,22.62-11.81,30.97-21.29,22.84-25.45-.66-55.55-21.37-73.43-4.35-3.75-8.88-7.34-13.64-10.53-9.1-5.82-19.9-8.75-30.68-8.85-16.31-.27-34.12,6.73-42.36,21.5-5.86,11.69-.07,25.32,7.35,34.92,5.05,6.59,11.29,12.52,18.28,16.91,3.45,2.3,7.07,3.33,11.12,3.58,9.57.99,21.21.77,27.49-7.47,2.91-5.06,1.11-11.63-.44-17.14-1.27-3.97-2.96-7.85-5.01-11.53-2.1-3.57-4.42-7.3-7.91-9.66,0,0,.24-.44.24-.44h0Z"/>
        <path class="cls-10" d="M1799,129.42c-8.48-4.78-28.79,3.41-37.36,7.13-6.85,3.24-21.52,10.21-23.93,17.41-.25,1.1.41,1.8,1.09,2.53,2.6,2.71,5.99,4.32,9.65,5.68,9.15,3.26,18.9,4.66,28.62,5.64,6.35.59,13.35.84,19.75.77,4.95-.03,9.9-.24,14.84-.57,5.07-.34,10.11-.55,15.18.64,8.92,1.88,12.87,9.04,8.26,17.29-5.28,9.15-14.49,15.01-23.39,19.93-29.85,15.28-65.63,18.33-97.9,9.94,0,0,.12-.49.12-.49,32.2,4.8,66.23.66,95.33-14.18,5.74-2.92,11.31-6.25,16.06-10.4,6.95-5.96,13.08-15.63.78-19.54-6.16-2.01-12.86-1.64-19.34-1.35,0,0-9.94.29-9.94.29-16.63.1-33.71,1.2-49.86-3.84-30.36-11.13-2.97-26.55,13.31-32.95,6.23-2.47,12.66-4.43,19.25-5.71,4.94-.87,10.08-1.55,15.08-.65,1.66.34,3.35.9,4.68,2.02l-.3.4h0Z"/>
        <path class="cls-11" d="M1534.32,76.35c-2.58-1.85-6.14-.87-8.83.2-5.85,2.42-8.32,8.33-7.25,14.43.44,3.07,1.4,6.14,2.46,9.28-2.14-2.53-3.81-5.49-4.75-8.8-2.33-7.13,1.23-15.16,8.77-17.11,3.13-.83,7.62-1.02,9.61,2h0Z"/>
        <path class="cls-12" d="M1704.72,254.07c-12.2,14.4-17.44,33.07,2.14,43.72,9.27,5.15,19.75,7.47,30.14,9.48-7.09-.53-14.19-1.6-21.06-3.73-27.85-8.19-31.16-29.84-11.22-49.46h0Z"/>
      </g>
      <g>
        <path class="cls-13" d="M1748.56,858.54c-13.25,4.7-26.83,15.08-33.88,27.31-10.02,18.15,7.96,23.8,22.77,24.8,7.4.62,14.75.2,22.2.06,22.43-.29,44.91,1.33,66.9,6.05,10.21,2.47,34.23,8.17,36.97,19.67,1.47,11.98-20.72,17.12-29.2,20.47-3.41,1.3-6.86,2.73-9.66,4.8-1.36,1-2.57,2.37-2.35,3.47,1.25,3.85,9.66,5.73,13.39,6.82,14.4,3.42,29.31,4.81,44.08,5.76,7.42.36,14.87.72,22.29.19-14.84,1.45-29.82.5-44.65-.72-11.08-1.34-22.67-2.25-32.97-7.04-11.57-6.4,2.58-13.25,8.96-15.62,7.08-2.92,28.34-8.17,27.41-17.62-2.8-9.71-25.79-15.11-34.92-17.24-21.66-4.79-44.03-6.54-66.21-6.38-7.43.13-14.99.42-22.43-.36-51.87-4.86-18.45-45.32,11.32-54.4h0Z"/>
        <path class="cls-14" d="M1788.86,817.28c-42.51.65-86.77,3.64-125.69,22.13-11.44,5.92-28.89,16.91-27.47,31.58,1.79,11.04,13.67,16.2,23.3,19.07-19.89-4.38-33.59-18.49-17.64-36.97,30.52-32.41,104.95-37.76,147.5-35.81h0Z"/>
        <path class="cls-15" d="M1759,840.73c6.15-2.64,12.79-3.91,19.33-5.18,13.15-2.36,26.43-3.7,39.74-4.73,19.94-1.42,39.95-2.06,59.94-1.62,10,.25,20.03.66,29.96,1.99,1.52.27,10.48,1.35,8.44,3.3,1.85-1.99-7.52-2.07-8.55-2.2-29.85-.66-59.74.9-89.55,2.29-13.25.71-26.5,1.52-39.7,2.89-6.58.74-13.22,1.43-19.61,3.25h0Z"/>
        <path class="cls-16" d="M1643.55,831.01c-22.06,6.86-36.64,23.32-30.82,47.26,4.26,16.38,17.24,30.21,33.22,35.69,3.71,1.35,7.5,2.1,11.42,2.58,10.72,1.35,21.52,2.41,32.32,3.49,19.15,2.13,46.05,4.1,64.77,7.52,5.23,1.21,20.59,3.35,19.67,10.62-.84,3.8-4.89,6.01-7.58,7.84-15.83,10.83-33.64,30.33-37.37,49.53-4.4,24.49,24.77,29.7,43.17,30.66,30.72,1.28,83.37,6.46,113.6,4.65,5.38-.4,10.74-1.12,16.06-2.18l.12.49c-10.49,3-21.43,4.27-32.32,4.68-32.63,1.04-65.19-1-97.76-2.31-13.82-.94-28.95-2.87-39.84-12.31-12.29-10.81-8.93-27.76-1.63-40.33,8.95-15.61,22.48-28.19,37.87-37.3,17.5-11.52-40.84-16.06-46.5-16.66-21.33-1.86-43.7-2.38-65.03-4.25-4.14-.4-8.44-1.15-12.4-2.52-12.09-4.01-22.47-12.6-29.13-23.4-12.73-20.36-9.71-46.63,12.66-58.52,4.85-2.66,10.07-4.46,15.37-5.7,0,0,.13.48.13.48h0Z"/>
      </g>
    </g>
  </g>
</svg>